<svg width="192" height="192" viewBox="0 0 192 192" fill="none" xmlns="http://www.w3.org/2000/svg">
<rect width="192" height="192" rx="32" fill="#007AFF"/>
<path d="M96 48C105.948 48 114 56.0518 114 66V86C114 95.9482 105.948 104 96 104C86.0518 104 78 95.9482 78 86V66C78 56.0518 86.0518 48 96 48Z" fill="white"/>
<path d="M96 112C105.948 112 114 120.052 114 130V150C114 159.948 105.948 168 96 168C86.0518 168 78 159.948 78 150V130C78 120.052 86.0518 112 96 112Z" fill="white"/>
<path d="M48 96C48 86.0518 56.0518 78 66 78H86C95.9482 78 104 86.0518 104 96C104 105.948 95.9482 114 86 114H66C56.0518 114 48 105.948 48 96Z" fill="white"/>
<path d="M112 96C112 86.0518 120.052 78 130 78H150C159.948 78 168 86.0518 168 96C168 105.948 159.948 114 150 114H130C120.052 114 112 105.948 112 96Z" fill="white"/>
</svg>